<svg width="1024" height="500" viewBox="0 0 1024 500" xmlns="http://www.w3.org/2000/svg">
  <defs>
    <linearGradient id="bg" x1="0%" y1="0%" x2="100%" y2="100%">
      <stop offset="0%" stop-color="#4FB6E0"/>
      <stop offset="100%" stop-color="#1B4D74"/>
    </linearGradient>
    <linearGradient id="mark" x1="0%" y1="0%" x2="100%" y2="100%">
      <stop offset="0%" stop-color="#8FD9F2"/>
      <stop offset="100%" stop-color="#4FB6E0"/>
    </linearGradient>
  </defs>

  <rect width="1024" height="500" fill="url(#bg)"/>

  <!-- decorative bubbles -->
  <circle cx="900" cy="80" r="60" fill="#FFFFFF" opacity="0.08"/>
  <circle cx="960" cy="220" r="34" fill="#FFFFFF" opacity="0.10"/>
  <circle cx="840" cy="360" r="90" fill="#FFFFFF" opacity="0.07"/>
  <circle cx="980" cy="420" r="22" fill="#FFFFFF" opacity="0.12"/>
  <circle cx="760" cy="60" r="16" fill="#FFFFFF" opacity="0.14"/>

  <!-- large shirt silhouette, right side -->
  <g transform="translate(700,120) scale(1.7)" fill="#FFFFFF" opacity="0.10">
    <path d="M40,0 L70,0 L88,20 L120,32 L120,80 L96,88 L96,180 L14,180 L14,88 L-10,80 L-10,32 L22,20 Z"/>
  </g>

  <!-- logo mark -->
  <rect x="64" y="176" width="112" height="112" rx="24" fill="url(#mark)"/>
  <text x="120" y="252" font-family="Arial, Helvetica, sans-serif" font-size="52" font-weight="900" fill="#1B4D74" text-anchor="middle">Bf</text>

  <!-- wordmark -->
  <text x="200" y="228" font-family="Arial, Helvetica, sans-serif" font-size="56" font-weight="900" fill="#FFFFFF">Bubbly-fi</text>
  <text x="200" y="270" font-family="Arial, Helvetica, sans-serif" font-size="26" font-weight="700" fill="#D9F1FB">Laundry Shop</text>

  <!-- tagline -->
  <text x="64" y="360" font-family="Arial, Helvetica, sans-serif" font-size="30" font-weight="700" fill="#FFFFFF">Book pickup, delivery, or counter drop-off</text>
  <text x="64" y="398" font-family="Arial, Helvetica, sans-serif" font-size="30" font-weight="700" fill="#FFFFFF">in Cubao, Quezon City</text>
</svg>
